PathFileType	4	(X/Y/Z)	D:\Share\Shared_Data\Ergonomics\Sit To Stand Pertubation\S0\Perturbed STS.trc
DataRate	CameraRate	NumFrames	NumMarkers	Units	OrigDataRate	OrigDataStartFrame	OrigNumFrames	
100	100	11	18	m	100	7875	211
Frame#	Time	R_Heel			R_ASIS			R_Pelvis			V_Sacral			L_Pelvis			L_ASIS			Clavical			R_Acromium			L_Acromium			Sternum			Torso			R_Thigh_Med			R_Thigh_Lat			R_Thigh			R_Shank_Med			R_Shank_Lat			R_Shank			R_Toe			
		X1	Y1	Z1	X2	Y2	Z2	X3	Y3	Z3	X4	Y4	Z4	X5	Y5	Z5	X6	Y6	Z6	X7	Y7	Z7	X8	Y8	Z8	X9	Y9	Z9	X10	Y10	Z10	X11	Y11	Z11	X12	Y12	Z12	X13	Y13	Z13	X14	Y14	Z14	X15	Y15	Z15	X16	Y16	Z16	X17	Y17	Z17	X18	Y18	Z18	

7875	35.09	0.186543	0.040784554	0.12913737	0.13940329	0.80973773	0.12345128	0.023712934	0.86475433	0.16698058	-0.10268932	0.89249939	-0.063015827	0.044229641	0.84396564	-0.23914694	0.1517274	0.78654858	-0.18511783	0.41591513	1.0645355	-0.024102768	0.4041431	1.1828286	0.092590866	0.40973795	1.1732532	-0.16986818	0.38180576	0.97797363	-0.048328888	0.39838855	1.0284944	-0.13934286	0.3455675	0.48497101	0.038519775	0.33838916	0.5087229	0.17215555	0.30880173	0.65687225	0.087942894	0.28661157	0.098846436	0.082353615	0.22952205	0.086628777	0.17292004	0.29110617	0.31029865	0.18778783	0.41098154	0.053174419	0.12146149
7876	35.1	0.18648959	0.040758816	0.12917416	0.14217108	0.81258429	0.12366646	0.026744534	0.86824463	0.16751663	-0.10000967	0.89649396	-0.062258583	0.046198772	0.84756824	-0.23881415	0.15365715	0.78985187	-0.18514456	0.41707227	1.0706427	-0.024088566	0.40497879	1.188745	0.092735191	0.41045468	1.1791959	-0.16994026	0.38297406	0.98412646	-0.048724747	0.39995828	1.0343851	-0.13922635	0.34585034	0.48505853	0.03800375	0.33906122	0.50866943	0.17161819	0.31070636	0.65713281	0.087800568	0.28648889	0.098807777	0.082169281	0.22956241	0.086658714	0.17285266	0.29143747	0.3103327	0.18750766	0.41085577	0.053233452	0.12112084
7877	35.11	0.18643388	0.040727879	0.12921201	0.14486957	0.81549274	0.12392426	0.029707951	0.87177954	0.16808884	-0.097378288	0.90056573	-0.061474407	0.048113503	0.85124677	-0.23845903	0.15551862	0.79323383	-0.18515323	0.41818088	1.0768152	-0.02407938	0.40575848	1.1947184	0.09289341	0.41110803	1.1852068	-0.17002646	0.38415503	0.99031152	-0.049057236	0.4014454	1.0403464	-0.13914804	0.34604468	0.48520618	0.03751849	0.33959045	0.5086423	0.17110667	0.31249442	0.65743011	0.087704247	0.28635303	0.098779892	0.081990562	0.22959254	0.086685928	0.17279056	0.29168512	0.31037994	0.1872435	0.41071634	0.053296101	0.12077066
7878	35.12	0.18637521	0.040691261	0.12925214	0.14749658	0.8184585	0.1242129	0.0326054	0.87534723	0.16869234	-0.094792122	0.9047063	-0.060664738	0.049981407	0.85500452	-0.23808127	0.15731689	0.79669562	-0.18513789	0.41924289	1.0830458	-0.024075535	0.40648709	1.2007478	0.093061363	0.41169904	1.1912865	-0.17012033	0.38537708	0.99651495	-0.049312008	0.40283237	1.0463818	-0.13910529	0.34615677	0.48540167	0.037071674	0.33997546	0.50865149	0.17063403	0.3141745	0.65775763	0.087646217	0.28620352	0.09876313	0.081822113	0.22961214	0.086709488	0.1727352	0.29184549	0.31043942	0.18700322	0.41056375	0.053362453	0.12041476
7879	35.13	0.18631319	0.040649048	0.12929581	0.15005008	0.82147546	0.12452444	0.03544183	0.87893738	0.16931917	-0.092247238	0.90890631	-0.059832237	0.051809967	0.85884253	-0.23768236	0.15905528	0.80023352	-0.1850948	0.42025574	1.0893289	-0.024078516	0.40716681	1.2068329	0.093235504	0.4122262	1.1974355	-0.17021596	0.38664951	1.002731	-0.049488281	0.40409778	1.0524946	-0.13909393	0.34618729	0.48563226	0.036670601	0.3402178	0.50870209	0.17020973	0.31575446	0.65810834	0.087622452	0.28603973	0.098757729	0.081667793	0.22962115	0.0867286	0.17268811	0.29191785	0.31050949	0.18679195	0.41039853	0.053432625	0.12005654
7880	35.14	0.18624738	0.040601849	0.12934366	0.15253009	0.82453925	0.12485361	0.038223724	0.88254163	0.16995926	-0.089739059	0.91315564	-0.058980686	0.053606926	0.86275916	-0.23726532	0.16073552	0.8038396	-0.18502216	0.42121564	1.0956606	-0.024090761	0.40779666	1.2129725	0.093413124	0.41268622	1.2036543	-0.17030888	0.38796036	1.0089622	-0.049597054	0.40522992	1.0586853	-0.13910872	0.34612552	0.48588367	0.036319611	0.34032339	0.50879095	0.16983492	0.31723953	0.65847559	0.087633141	0.28586072	0.098763779	0.081529335	0.22961935	0.086742882	0.17265025	0.2919054	0.31058798	0.18661086	0.41022083	0.053507545	0.11969912
7881	35.15	0.18617751	0.040550407	0.12939537	0.15493742	0.8276474	0.12519661	0.040957134	0.88615503	0.17060262	-0.087263	0.91744336	-0.058114616	0.055380459	0.86674921	-0.23683377	0.1623575	0.80750226	-0.18491974	0.42211963	1.1020381	-0.024114967	0.40837286	1.2191646	0.093592377	0.41307513	1.2099415	-0.17039641	0.38928311	1.0152164	-0.049655567	0.40623615	1.064951	-0.13914383	0.34594836	0.48613995	0.036018654	0.34030173	0.50891052	0.16950456	0.31863239	0.6588537	0.087681389	0.28566556	0.098781311	0.081406113	0.2296059	0.086752235	0.17262151	0.29181479	0.31067215	0.18645781	0.4100296	0.053589058	0.11934515
7882	35.16	0.18610312	0.040495335	0.12944962	0.15727275	0.83079865	0.12555074	0.043646225	0.88977545	0.17124176	-0.084815102	0.92175739	-0.057239231	0.05713892	0.87080389	-0.23639134	0.16391925	0.81120807	-0.18478835	0.42296603	1.1084585	-0.024152975	0.40888989	1.2254061	0.093772301	0.4133891	1.2162948	-0.1704772	0.3905892	1.021503	-0.049681034	0.40713901	1.0712863	-0.13919362	0.34563245	0.48638864	0.035764359	0.34016281	0.50905466	0.16921329	0.3199346	0.65923926	0.087771088	0.2854538	0.09881044	0.081296112	0.22957913	0.086756828	0.172601	0.29165399	0.31075958	0.18632893	0.40982285	0.053678974	0.11899625
7883	35.17	0.18602354	0.040437183	0.12950465	0.15953726	0.83399072	0.12591484	0.046291969	0.89340363	0.17187338	-0.082392273	0.92608502	-0.056360458	0.058890682	0.87491132	-0.23594121	0.16541782	0.81494281	-0.18462929	0.42375433	1.11492	-0.024204279	0.40934155	1.2316936	0.093952744	0.4136257	1.2227097	-0.17055081	0.39185715	1.0278287	-0.049686798	0.40796576	1.0776833	-0.13925345	0.34517163	0.48662881	0.035552795	0.33991592	0.50922	0.16895781	0.32114816	0.65963	0.087904747	0.28522552	0.098851311	0.081197037	0.22953694	0.086756859	0.1725874	0.29143048	0.3108483	0.18622028	0.4095986	0.053778606	0.11865334
7884	35.18	0.18593787	0.040376358	0.12955873	0.16173233	0.83721869	0.12629046	0.048891216	0.89704242	0.1724991	-0.079992188	0.93041248	-0.055485229	0.060643913	0.87905743	-0.23548582	0.16685262	0.81869287	-0.1844436	0.42448563	1.1214213	-0.024264679	0.40972253	1.2380234	0.094134476	0.41378482	1.2291799	-0.17061726	0.39307547	1.0341969	-0.049680992	0.40874011	1.0841346	-0.13932011	0.34458173	0.48687149	0.035381798	0.33956866	0.50940424	0.16873735	0.32227621	0.66002576	0.08808255	0.28498141	0.098903732	0.081107361	0.22947694	0.086752411	0.17257951	0.29114938	0.31093787	0.18612965	0.40935538	0.053889076	0.11831789
7885	35.19	0.18584486	0.040312855	0.12961084	0.16386006	0.84047467	0.12668143	0.05143845	0.90069489	0.17312357	-0.077612503	0.93472546	-0.054621719	0.06240638	0.88322693	-0.23502763	0.16823206	0.82244489	-0.18423062	0.42516263	1.1279619	-0.024325909	0.41002863	1.2443917	0.094318954	0.41386816	1.2356989	-0.17067696	0.39424152	1.0406067	-0.049666645	0.40947922	1.0906318	-0.13939182	0.34388773	0.48713083	0.035251507	0.33912668	0.50960452	0.16855286	0.32332166	0.66042737	0.088302963	0.28472293	0.098967186	0.08102668	0.2293968	0.086743286	0.1725769	0.29081317	0.31102921	0.18605775	0.40909229	0.054011677	0.1179921
